# xmcd
#
# Track frame offsets: 
#        150
#        14240
#        29168
#        45466
#        64262
#        78161
#        92657
#        108577
#        122215
#        137924
#        153344
#        167577
#        181161
#        210258
#        224330
#        249108
#
# Disc length: 3520 seconds
#
# Revision: 0
# Processed by: cddbd v1.5.2PL0 Copyright (c) Steve Scherf et al.
# Submitted via: ExactAudioCopy v0.99pb5
#
DISCID=da0dbe10
DTITLE=Smile.dk - Party Around the World
DYEAR=2008
DGENRE=Eurodance
TTITLE0=Doki Doki
TTITLE1=Japanese Boy
TTITLE2=Temptation Island
TTITLE3=Nothing's Missing (for Once in my Life)
TTITLE4=Koko Soko
TTITLE5=Summer Party
TTITLE6=It's in your Melody
TTITLE7=Chicks Tricks
TTITLE8=Hummingbird
TTITLE9=Paradise
TTITLE10=Tomoe
TTITLE11=Around the World
TTITLE12=Heal My Broken Heart (ALMIGHTY  DEFINITIVE MIX) BONUS
TTITLE13=Butterfly (United Forces Airplay Edit) JAPAN VER. BONUS
TTITLE14=Koko Soko (Orange Summer Trance Remix) JAPAN VER. BONUS
TTITLE15=Koko Soko (AKIBA KOUBOU Eurobeat Remix) JAPAN VER. BONUS
EXTD=
EXTT0=
EXTT1=
EXTT2=
EXTT3=
EXTT4=
EXTT5=
EXTT6=
EXTT7=
EXTT8=
EXTT9=
EXTT10=
EXTT11=
EXTT12=
EXTT13=
EXTT14=
EXTT15=
PLAYORDER=
